<?xml version="1.0" encoding="UTF-8" standalone="no"?>
<!-- Created with Inkscape (http://www.inkscape.org/) -->

<svg
   width="258.83777mm"
   height="81.527039mm"
   viewBox="0 0 258.83777 81.527039"
   version="1.1"
   id="svg1"
   xml:space="preserve"
   xmlns="http://www.w3.org/2000/svg"
   xmlns:svg="http://www.w3.org/2000/svg"><defs
     id="defs1" /><g
     id="layer1"
     transform="translate(-16.750572,-13.690452)"><g
       id="g488"
       transform="matrix(4.1114699,0,0,4.1114699,-201.61218,-397.06939)"><g
         id="g479"
         transform="translate(-0.66821592,-33.367207)"><path
           style="fill:none;fill-opacity:1;stroke:#4ec4ce;stroke-width:0.394999;stroke-linejoin:miter;stroke-miterlimit:13.4;stroke-dasharray:none;stroke-opacity:1"
           d="m 95.579998,149.61375 v 2.4975 H 112.455"
           id="path478" /><path
           style="fill:none;fill-opacity:1;stroke:#4ec4ce;stroke-width:0.394999;stroke-linejoin:miter;stroke-miterlimit:13.4;stroke-dasharray:none;stroke-opacity:1"
           d="m 96.524999,142.32375 3.374999,-3.67875 h 11.576252 l 0.0338,-0.0337 v 0 0"
           id="path475" /><rect
           style="fill:#2ad4ff;fill-opacity:1;stroke:#4ec4ce;stroke-width:2.35033;stroke-linejoin:miter;stroke-miterlimit:13.4;stroke-dasharray:none;stroke-opacity:1"
           id="rect470"
           width="0.4171676"
           height="10.744667"
           x="84.470154"
           y="138.09894" /><path
           id="rect471"
           style="fill:#4ec4ce;stroke-width:2.295;stroke-miterlimit:13.4"
           d="m 74.553752,136.94062 2.666249,0.0169 5.23125,13.06125 h -2.885624 z" /><path
           id="rect471-3"
           style="fill:#4ec4ce;stroke-width:2.295;stroke-miterlimit:13.4"
           d="m 77.266666,136.94062 -2.66638,0.0169 -5.332369,13.06125 h 2.885624 z" /><path
           id="rect472"
           style="fill:#4ec4ce;stroke-width:2.295;stroke-miterlimit:13.4"
           d="M 74.773125,145.04063 H 79.245 v 2.39625 L 75.819375,147.42 Z" /><path
           style="fill:none;fill-opacity:1;stroke:#4ec4ce;stroke-width:0.393926;stroke-linejoin:miter;stroke-miterlimit:13.4;stroke-dasharray:none;stroke-opacity:1"
           d="m 93.589036,134.72952 -1.519292,1.4764 -0.03376,4.295 v 0"
           id="path474" /><path
           style="fill:none;fill-opacity:1;stroke:#4ec4ce;stroke-width:0.394999;stroke-linejoin:miter;stroke-miterlimit:13.4;stroke-dasharray:none;stroke-opacity:1"
           d="m 61.728749,138.5775 h 7.8975 l 3.307501,3.40875"
           id="path476" /><path
           style="fill:none;fill-opacity:1;stroke:#4ec4ce;stroke-width:0.394999;stroke-linejoin:miter;stroke-miterlimit:13.4;stroke-dasharray:none;stroke-opacity:1"
           d="m 61.661248,152.0775 c 2.293063,0.0208 4.587148,-0.0355 6.879875,0.0147 l 2.858673,-6.78001"
           id="path477" /><ellipse
           style="fill:none;fill-opacity:1;stroke:#4ec4ce;stroke-width:0.376;stroke-linejoin:miter;stroke-miterlimit:13.4;stroke-dasharray:none;stroke-opacity:1"
           id="path479"
           cx="60.891171"
           cy="138.58917"
           rx="0.79924029"
           ry="0.79327404" /><ellipse
           style="fill:none;fill-opacity:1;stroke:#4ec4ce;stroke-width:0.376;stroke-linejoin:miter;stroke-miterlimit:13.4;stroke-dasharray:none;stroke-opacity:1"
           id="path479-5"
           cx="94.170975"
           cy="134.25432"
           rx="0.79924029"
           ry="0.79327404" /><ellipse
           style="fill:none;fill-opacity:1;stroke:#4ec4ce;stroke-width:0.376;stroke-linejoin:miter;stroke-miterlimit:13.4;stroke-dasharray:none;stroke-opacity:1"
           id="path479-56"
           cx="60.751175"
           cy="152.12094"
           rx="0.79924029"
           ry="0.79327404" /><ellipse
           style="fill:none;fill-opacity:1;stroke:#4ec4ce;stroke-width:0.376;stroke-linejoin:miter;stroke-miterlimit:13.4;stroke-dasharray:none;stroke-opacity:1"
           id="path479-52"
           cx="113.32667"
           cy="151.9825"
           rx="0.79924029"
           ry="0.79327404" /><ellipse
           style="fill:none;fill-opacity:1;stroke:#4ec4ce;stroke-width:0.376;stroke-linejoin:miter;stroke-miterlimit:13.4;stroke-dasharray:none;stroke-opacity:1"
           id="path479-4"
           cx="112.37268"
           cy="138.60576"
           rx="0.79924029"
           ry="0.79327404" /><ellipse
           style="fill:none;fill-opacity:1;stroke:#4ec4ce;stroke-width:0.901;stroke-linejoin:miter;stroke-miterlimit:13.4;stroke-dasharray:none;stroke-opacity:1"
           id="path479-4-6"
           cx="95.638306"
           cy="138.29063"
           rx="0.97772241"
           ry="0.97042388" /></g><g
         id="g468"
         transform="translate(-0.47729708,-33.410795)"><g
           id="g467" /><g
           id="g469"><ellipse
             style="fill:none;fill-opacity:1;stroke:#2b2b2b;stroke-width:2.29353;stroke-dasharray:none;stroke-opacity:1"
             id="path460"
             cx="102.45184"
             cy="145.24146"
             rx="3.6365693"
             ry="3.6522584" /><rect
             style="fill:none;fill-opacity:1;stroke:#2b2b2b;stroke-width:2.191;stroke-linejoin:miter;stroke-miterlimit:13.4;stroke-dasharray:none;stroke-opacity:1"
             id="rect461"
             width="0.11932363"
             height="7.2787786"
             x="95.578735"
             y="141.6662" /><g
             id="g470"><g
               id="g466"
               style="fill:#2b2b2b;fill-opacity:1;stroke:none;stroke-opacity:1"><g
                 id="g465"
                 style="fill:#2b2b2b;fill-opacity:1;stroke:none;stroke-opacity:1"><g
                   id="g464"
                   style="fill:#2b2b2b;fill-opacity:1;stroke:none;stroke-opacity:1"><path
                     style="fill:#2b2b2b;fill-opacity:1;stroke:none;stroke-width:1.657;stroke-linejoin:miter;stroke-miterlimit:13.4;stroke-dasharray:none;stroke-opacity:1"
                     d="m 87.943433,146.43474 c 0.01398,1.78908 0.870719,4.08049 5.319779,3.45594 0.0061,-0.97528 -0.0065,-1.77606 -0.01039,-2.2213 -3.234835,0.31686 -2.894166,-0.91176 -2.975504,-1.25885 -0.757919,-0.16501 -1.403292,-0.14925 -2.333889,0.0242 z"
                     id="path464" /></g></g></g><rect
               style="fill:none;fill-opacity:1;stroke:#2b2b2b;stroke-width:2.191;stroke-linejoin:miter;stroke-miterlimit:13.4;stroke-dasharray:none;stroke-opacity:1"
               id="rect461-0"
               width="0.14318912"
               height="7.2071824"
               x="89.042854"
               y="138.13092" /><rect
               style="fill:#2b2b2b;fill-opacity:1;stroke:#2b2b2b;stroke-width:1.95066;stroke-linejoin:miter;stroke-miterlimit:13.4;stroke-dasharray:none;stroke-opacity:1"
               id="rect461-0-9"
               width="0.33580625"
               height="2.43591"
               x="-141.81467"
               y="89.823463"
               transform="rotate(-90)" /></g><path
             id="path468"
             style="baseline-shift:baseline;display:inline;overflow:visible;opacity:1;vector-effect:none;fill:#2b2b2b;fill-opacity:1;stroke-miterlimit:13.4;enable-background:accumulate;stop-color:#000000;stop-opacity:1"
             d="m 112.23047,140.29634 c -1.79624,-0.0191 -2.93758,1.01199 -3.57464,2.02032 -0.60825,0.9627 -0.49958,2.18085 -0.49958,2.18085 l 2.30078,0.0723 c 0,0 0.0736,-0.75531 0.41173,-1.20818 0.33813,-0.45288 0.86657,-0.74872 1.39687,-0.76252 0.58119,-0.0151 1.30817,0.37967 1.57234,0.75492 0.26417,0.37525 0.39349,0.85993 0.39445,1.10055 l 2.30274,-0.01 c -0.003,-0.65389 -0.1466,-1.59716 -0.78907,-2.50976 -0.64246,-0.9126 -1.88121,-1.66415 -3.51562,-1.63867 z m 2.00195,4.13662 v 5.60752 h 2.31055 v -5.60752 z m -6.07226,0 v 5.60351 h 2.31054 l -0.0164,-5.50226 z" /><path
             id="path468-7"
             style="baseline-shift:baseline;display:inline;overflow:visible;vector-effect:none;fill:#2b2b2b;fill-opacity:1;stroke:none;stroke-miterlimit:13.4;stroke-opacity:1;enable-background:accumulate;stop-color:#000000"
             d="m 57.669677,140.29634 c -1.79624,-0.0191 -2.93758,1.01199 -3.57464,2.02032 -0.60825,0.9627 -0.49958,2.18085 -0.49958,2.18085 l 2.30078,0.0723 c 0,0 0.0736,-0.75531 0.41173,-1.20818 0.33813,-0.45288 0.86657,-0.74872 1.39687,-0.76252 0.58119,-0.0151 1.30817,0.37967 1.57234,0.75492 0.26417,0.37525 0.39349,0.85993 0.39445,1.10055 l 2.30274,-0.01 c -0.003,-0.65389 -0.1466,-1.59716 -0.78907,-2.50976 -0.64246,-0.9126 -1.88121,-1.66415 -3.51562,-1.63867 z m 2.00195,4.13662 v 5.60752 h 2.31055 v -5.60752 z m -6.07226,0 v 5.60351 h 2.31054 l -0.0164,-5.50226 z" /><path
             id="path468-3"
             style="baseline-shift:baseline;display:inline;overflow:visible;vector-effect:none;fill:#2b2b2b;fill-opacity:1;stroke-miterlimit:13.4;enable-background:accumulate;stop-color:#000000"
             d="m 63.755215,140.29634 c -1.79624,-0.0191 -2.93758,1.01199 -3.57464,2.02032 -0.60825,0.9627 -0.49958,2.18085 -0.49958,2.18085 l 2.30078,0.0723 c 0,0 0.0736,-0.75531 0.41173,-1.20818 0.33813,-0.45288 0.86657,-0.74872 1.39687,-0.76252 0.58119,-0.0151 1.30817,0.37967 1.57234,0.75492 0.26417,0.37525 0.39349,0.85993 0.39445,1.10055 l 2.30274,-0.01 c -0.003,-0.65389 -0.1466,-1.59716 -0.78907,-2.50976 -0.64246,-0.9126 -1.88121,-1.66415 -3.51562,-1.63867 z m 2.00195,4.13662 v 5.60752 h 2.31055 v -5.60752 z m -6.07226,0 v 5.60351 h 2.31054 l -0.0164,-5.50226 z" /></g></g></g></g></svg>
