<?xml version="1.0" encoding="UTF-8"?>
<svg version="1.1" xmlns="http://www.w3.org/2000/svg" width="512" height="512">
<path d="M0 0 C7.07662485 6.42334448 14.0844051 12.81799014 20.08642578 20.27783203 C20.98306123 21.35116656 21.88025218 22.42403714 22.77783203 23.49658203 C30.33041465 32.61960087 36.9551711 42.14931781 43.08642578 52.27783203 C43.51165527 52.97714844 43.93688477 53.67646484 44.375 54.39697266 C59.80262806 80.09189182 69.47279718 108.73737564 74.08642578 138.27783203 C74.20356934 138.98020996 74.32071289 139.68258789 74.44140625 140.40625 C84.0233583 199.42139302 66.98128073 261.84166886 32.69506836 310.09960938 C27.96047164 316.6128032 22.82338089 322.73205528 17.46191406 328.73486328 C16.16756435 330.18681397 14.89006767 331.65373836 13.61376953 333.12158203 C9.67334701 337.6094732 5.64671346 341.7502018 1.07470703 345.59423828 C-0.2260046 346.69562671 -1.50128796 347.82795214 -2.74560547 348.99267578 C-16.78701518 362.09245249 -32.99443314 372.34593276 -49.91357422 381.27783203 C-51.07228027 381.89416504 -51.07228027 381.89416504 -52.25439453 382.52294922 C-82.64902806 398.44894942 -116.80511014 405.9593391 -150.91357422 407.27783203 C-151.93193359 407.32037109 -152.95029297 407.36291016 -153.99951172 407.40673828 C-206.58802564 408.46414808 -259.66975672 390.85698199 -300.91357422 358.27783203 C-301.81333984 357.57142578 -302.71310547 356.86501953 -303.64013672 356.13720703 C-348.07484094 320.5382221 -377.10254896 271.13987147 -387.91357422 215.27783203 C-388.16131592 214.05797607 -388.16131592 214.05797607 -388.4140625 212.81347656 C-393.54712423 186.64919398 -393.1668144 156.3788367 -387.91357422 130.27783203 C-387.71489746 129.28364258 -387.5162207 128.28945312 -387.31152344 127.26513672 C-376.27008667 73.88578622 -347.14740743 23.96495383 -303.91357422 -9.72216797 C-302.96611328 -10.49818359 -302.01865234 -11.27419922 -301.04248047 -12.07373047 C-287.03534847 -23.31512303 -271.20363914 -32.22554474 -254.91357422 -39.72216797 C-254.20475098 -40.05168457 -253.49592773 -40.38120117 -252.765625 -40.72070312 C-173.47535598 -77.13536434 -75.18667596 -63.56415558 0 0 Z " fill="#FEFEFE" transform="translate(412.91357421875,79.72216796875)"/>
<path d="M0 0 C1.25159912 0.00523682 2.50319824 0.01047363 3.79272461 0.01586914 C4.78942421 0.01799156 4.78942421 0.01799156 5.80625916 0.02015686 C7.93590735 0.02577021 10.06545175 0.03832485 12.19506836 0.05102539 C13.63582205 0.05603868 15.07657739 0.06060188 16.51733398 0.06469727 C20.05577938 0.07574394 23.59416375 0.09301747 27.13256836 0.11352539 C29.73323164 5.15369975 31.99001997 10.08132855 33.88256836 15.42602539 C34.31053711 16.6184082 34.73850586 17.81079102 35.17944336 19.03930664 C36.13256836 22.11352539 36.13256836 22.11352539 36.13256836 25.11352539 C36.79256836 25.11352539 37.45256836 25.11352539 38.13256836 25.11352539 C44.40826558 39.56691188 50.40437595 54.10932347 56.17871094 68.76953125 C56.52699951 69.64875244 56.87528809 70.52797363 57.23413086 71.43383789 C57.54817871 72.22935059 57.86222656 73.02486328 58.18579102 73.84448242 C59.35619953 76.64947899 60.6910544 79.34274993 62.10522461 82.03149414 C63.21825861 84.28718663 64.2121169 86.58285278 65.19335938 88.8984375 C66.34912846 91.62427398 67.52114697 94.3429925 68.69116211 97.06274414 C69.65108103 99.30871674 70.61070871 101.55481384 71.57006836 103.80102539 C72.04766602 104.90897461 72.52526367 106.01692383 73.01733398 107.15844727 C81.13256836 126.20531423 81.13256836 126.20531423 81.13256836 133.11352539 C81.79256836 133.11352539 82.45256836 133.11352539 83.13256836 133.11352539 C83.71590169 134.42602539 84.29923503 135.73852539 84.88256836 137.05102539 C85.4278418 138.27499023 85.4278418 138.27499023 85.98413086 139.52368164 C86.73475653 141.21641913 87.47979541 142.91164801 88.21850586 144.60961914 C88.7328418 145.78717773 88.7328418 145.78717773 89.25756836 146.98852539 C89.56952148 147.70782227 89.88147461 148.42711914 90.20288086 149.16821289 C91.19235967 151.35672367 91.19235967 151.35672367 93.13256836 154.11352539 C93.13256836 155.10352539 93.13256836 156.09352539 93.13256836 157.11352539 C81.58256836 157.11352539 70.03256836 157.11352539 58.13256836 157.11352539 C56.50319336 152.92665039 54.87381836 148.73977539 53.19506836 144.42602539 C52.4256189 142.4582312 52.4256189 142.4582312 51.640625 140.45068359 C51.23706787 139.4074292 50.83351074 138.3641748 50.41772461 137.28930664 C50.00401611 136.22623291 49.59030762 135.16315918 49.1640625 134.06787109 C48.13256836 131.11352539 48.13256836 131.11352539 47.13256836 126.11352539 C35.58256836 126.11352539 24.03256836 126.11352539 12.13256836 126.11352539 C10.15256836 121.65852539 10.15256836 121.65852539 8.13256836 117.11352539 C7.63756836 116.30915039 7.14256836 115.50477539 6.63256836 114.67602539 C3.61661636 109.52377407 1.57686416 103.89070858 0.13256836 98.11352539 C11.35256836 98.11352539 22.57256836 98.11352539 34.13256836 98.11352539 C31.35247681 90.32926904 28.65793623 82.8595717 25.44897461 75.30493164 C23.38038606 70.28998551 21.51331766 65.20225702 19.62475586 60.11743164 C17.51206702 54.42974189 15.3222995 48.77194568 13.13256836 43.11352539 C12.47256836 43.11352539 11.81256836 43.11352539 11.13256836 43.11352539 C10.54475586 44.96977539 10.54475586 44.96977539 9.94506836 46.86352539 C8.72136342 50.53785389 7.33976426 54.10146069 5.83178711 57.66821289 C3.20791655 63.91912819 0.65426965 70.19576333 -1.86743164 76.48852539 C-2.52642456 78.12978394 -2.52642456 78.12978394 -3.19873047 79.80419922 C-5.44584564 85.43347546 -7.59939015 91.06433724 -9.55493164 96.80102539 C-11.59117515 102.69389972 -14.31343073 108.07396518 -17.17211914 113.60571289 C-19.391175 118.19721556 -21.03573323 122.90286971 -22.68383789 127.72290039 C-25.25974826 135.10207598 -28.27619902 142.30944076 -31.97290039 149.19946289 C-33.17148136 151.76411212 -33.98642431 154.42562147 -34.86743164 157.11352539 C-35.6632666 157.0914502 -36.45910156 157.069375 -37.27905273 157.04663086 C-52.57742811 155.89522329 -52.57742811 155.89522329 -66.70727539 160.12524414 C-69.15610833 162.65144937 -71.01196522 165.13090647 -72.86743164 168.11352539 C-74.03037808 169.48883597 -75.21678548 170.84478536 -76.42993164 172.17602539 C-78.24320166 174.21185424 -79.9607787 176.24014253 -81.57957458 178.43589783 C-84.85772211 182.41864042 -87.36211372 184.78582722 -92.49221802 185.90261841 C-96.90169425 186.26828151 -101.29793259 186.12747522 -105.71508789 185.99243164 C-107.3388667 185.97561856 -108.96269156 185.96282014 -110.58653259 185.95384216 C-114.83414629 185.9196872 -119.07893308 185.83147477 -123.32543945 185.73150635 C-127.66912601 185.63897703 -132.01327529 185.59823675 -136.35766602 185.55297852 C-144.86221003 185.45682636 -153.36446796 185.30349056 -161.86743164 185.11352539 C-161.99375977 185.71680664 -162.12008789 186.32008789 -162.25024414 186.94165039 C-163.28111406 190.5692686 -164.81509251 191.91584122 -167.86743164 194.11352539 C-171.75924174 195.0731498 -174.99396239 195.19515204 -178.86743164 194.11352539 C-182.88969244 190.62091344 -184.5542459 186.62725648 -185.61743164 181.48852539 C-184.58600474 176.84710435 -182.88209187 173.77679409 -178.86743164 171.11352539 C-174.1666226 170.21918908 -169.41905585 170.64557732 -164.86743164 172.11352539 C-162.04140872 175.0404777 -161.86743164 175.86457814 -161.86743164 180.11352539 C-153.10337389 180.47349703 -144.34581246 180.71324358 -135.57488728 180.81042957 C-131.49878285 180.85914535 -127.43148184 180.94518807 -123.35888672 181.125 C-101.894881 182.43026611 -101.894881 182.43026611 -83.44525051 173.04100704 C-77.86234122 167.64468538 -73.16660981 161.56229265 -68.86743164 155.11352539 C-68.20743164 155.11352539 -67.54743164 155.11352539 -66.86743164 155.11352539 C-66.75012695 154.41743164 -66.63282227 153.72133789 -66.51196289 153.00415039 C-64.21355145 142.69612334 -59.18992627 132.60416282 -54.36743164 123.23852539 C-52.16061594 118.87888337 -50.45222572 114.45883553 -48.83618164 109.85180664 C-46.94778925 104.51405233 -44.94377274 99.22136005 -42.36743164 94.17602539 C-41.04631103 91.47873749 -40.04536942 88.87968308 -39.05493164 86.05102539 C-37.514557 81.69158673 -35.71919584 77.54310711 -33.74243164 73.36352539 C-33.24098633 72.27168945 -32.73954102 71.17985352 -32.22290039 70.05493164 C-31.44246143 68.36135661 -30.64318661 66.675636 -29.79321289 65.01586914 C-28.86276677 63.12286408 -28.86276677 63.12286408 -28.86743164 60.11352539 C-30.08496658 58.25983513 -30.08496658 58.25983513 -31.82446289 56.44555664 C-32.46681885 55.74213135 -33.1091748 55.03870605 -33.77099609 54.31396484 C-37.23567255 50.67740622 -40.78405194 47.1328017 -44.36743164 43.61352539 C-49.22222412 38.84558072 -53.92450807 34.037025 -58.34204102 28.85766602 C-59.84291138 27.08580073 -59.84291138 27.08580073 -61.56469727 25.51000977 C-62.86743164 24.11352539 -62.86743164 24.11352539 -62.86743164 22.11352539 C-94.54743164 22.11352539 -126.22743164 22.11352539 -158.86743164 22.11352539 C-159.85743164 24.58852539 -159.85743164 24.58852539 -160.86743164 27.11352539 C-163.07526729 29.58897749 -164.7035142 30.92341183 -168.01977539 31.46508789 C-173.91915783 31.68103866 -177.26256244 30.44892536 -181.67993164 26.48852539 C-183.5533095 22.74176968 -183.64645721 19.20695064 -182.86743164 15.11352539 C-181.14838412 12.04470723 -179.06028997 9.70995455 -175.86743164 8.11352539 C-170.42262057 7.49977857 -166.25154631 7.08928054 -161.74243164 10.42602539 C-159.86743164 13.11352539 -159.86743164 13.11352539 -158.86743164 16.11352539 C-157.67520996 16.08830307 -156.48298828 16.06308075 -155.25463867 16.03709412 C-143.95769549 15.80940357 -132.66275545 15.6731598 -121.36358643 15.6238699 C-115.55548593 15.595663 -109.75130743 15.53651266 -103.94458008 15.40380859 C-98.32830417 15.27664249 -92.71693861 15.23446652 -87.0993042 15.24843025 C-84.96863316 15.23932502 -82.83785646 15.2008225 -80.70831299 15.1309185 C-63.20671749 14.58713011 -63.20671749 14.58713011 -56.06103516 20.84671021 C-52.53622885 24.38073193 -49.41814421 28.16462748 -46.40658569 32.14015388 C-44.39067523 34.72478163 -42.18192185 36.92267135 -39.80493164 39.17602539 C-36.49633323 42.42779673 -33.44245589 45.8234963 -30.47290039 49.38696289 C-28.75377855 51.23575086 -26.92513324 52.65840452 -24.86743164 54.11352539 C-24.69727539 53.57985352 -24.52711914 53.04618164 -24.35180664 52.49633789 C-21.35237661 43.27468599 -17.58794064 34.45143178 -13.65893555 25.59350586 C-10.93856176 19.40025254 -8.48356763 13.11478395 -6.08886719 6.78930664 C-3.55812956 0.14087103 -3.55812956 0.14087103 0 0 Z " fill="#4CC2C8" transform="translate(306.867431640625,165.886474609375)"/>
<path d="M0 0 C1.69930848 1.29147445 3.38707631 2.6021328 5 4 C7.86198055 3.01874953 9.94890115 2.0414315 12.3125 0.125 C23.28308345 -8.54941482 36.97524836 -10.25519614 50.55566406 -9.29736328 C63.87307994 -7.67724617 76.29093223 -0.95903408 84.875 9.3125 C90.92686795 17.69200947 94.16656098 26.15958667 94.11352539 36.43066406 C94.11367142 37.17251953 94.11381744 37.914375 94.1139679 38.67871094 C94.11327269 41.12437897 94.10549866 43.56997031 94.09765625 46.015625 C94.09579068 47.71384642 94.09436743 49.41206838 94.09336853 51.11029053 C94.08955432 55.57533255 94.07973339 60.04034194 94.06866455 64.50537109 C94.05842687 69.06347207 94.05386586 73.62157833 94.04882812 78.1796875 C94.03811014 87.1198083 94.0205222 96.05989633 94 105 C85.09 105 76.18 105 67 105 C66.9906543 102.96215332 66.98130859 100.92430664 66.97167969 98.82470703 C66.93777209 92.05918176 66.88214754 85.29395709 66.81609726 78.52867317 C66.77674344 74.43055852 66.74449621 70.33265484 66.72900391 66.234375 C66.71375685 62.27241352 66.67917116 58.31103253 66.63169098 54.3493309 C66.61695949 52.84487862 66.60896376 51.34034341 66.60811615 49.83581924 C66.66152805 35.68351109 66.66152805 35.68351109 59.81640625 23.78125 C59.07261719 23.3584375 58.32882813 22.935625 57.5625 22.5 C56.82128906 22.0565625 56.08007812 21.613125 55.31640625 21.15625 C48.56861788 17.78804535 42.14692621 16.52819062 34.71875 18.65234375 C28.80811606 21.30076242 24.33304154 25.62730134 21.94326782 31.6736145 C20.90898324 35.32096593 20.72159883 38.41024248 20.68115234 42.19873047 C20.67110672 42.89211014 20.6610611 43.58548981 20.65071106 44.29988098 C20.62003042 46.57230871 20.60288657 48.84461946 20.5859375 51.1171875 C20.56721364 52.70045976 20.54763932 54.28372216 20.5272522 55.86697388 C20.47605356 60.0195534 20.43636246 64.17216522 20.39910889 68.32489014 C20.35899204 72.56823641 20.30793484 76.81144971 20.2578125 81.0546875 C20.16119852 89.36970727 20.07775958 97.68478251 20 106 C10.76 106 1.52 106 -8 106 C-8.01458252 103.82003418 -8.02916504 101.64006836 -8.04418945 99.39404297 C-8.09458638 92.181493 -8.16119044 84.96915777 -8.23571491 77.75681877 C-8.28039182 73.38509855 -8.31965377 69.01347094 -8.34643555 64.64160156 C-8.37249539 60.42039162 -8.41291653 56.19953857 -8.46318626 51.97854996 C-8.4798369 50.37030612 -8.49136241 48.76200058 -8.49761391 47.15368271 C-8.5072749 44.89618501 -8.53535629 42.63959665 -8.56762695 40.38232422 C-8.57873001 39.09881073 -8.58983307 37.81529724 -8.60127258 36.4928894 C-9.33170038 30.09427374 -12.25292461 26.18194737 -17 22 C-23.31472163 17.68750718 -29.48758327 17.27063915 -37 18 C-43.10514308 19.73239957 -47.67273802 23.63823388 -51 29 C-52.78679543 33.52073124 -53.26709769 37.35148399 -53.31884766 42.19873047 C-53.32889328 42.89211014 -53.3389389 43.58548981 -53.34928894 44.29988098 C-53.37996958 46.57230871 -53.39711343 48.84461946 -53.4140625 51.1171875 C-53.43278636 52.70045976 -53.45236068 54.28372216 -53.4727478 55.86697388 C-53.52394644 60.0195534 -53.56363754 64.17216522 -53.60089111 68.32489014 C-53.64100796 72.56823641 -53.69206516 76.81144971 -53.7421875 81.0546875 C-53.83880148 89.36970727 -53.92224042 97.68478251 -54 106 C-63.24 106 -72.48 106 -82 106 C-82.09088158 96.72378688 -82.16404767 87.44787629 -82.20724869 78.17131615 C-82.22799783 73.86241298 -82.2560791 69.55383391 -82.30175781 65.24511719 C-82.34567383 61.07590236 -82.369232 56.90699644 -82.37950897 52.7375679 C-82.38681927 51.15817028 -82.40109076 49.57878684 -82.42292023 47.99952316 C-82.6357907 31.93976858 -80.02924328 17.72730242 -68.67578125 5.49609375 C-50.21150499 -12.09859336 -20.95164995 -14.66998525 0 0 Z " fill="#323537" transform="translate(130,217)"/>
<path d="M0 0 C10.89 0 21.78 0 33 0 C33 51.81 33 103.62 33 157 C22.11 157 11.22 157 0 157 C0 105.19 0 53.38 0 0 Z " fill="#51CACE" transform="translate(411,166)"/>
<path d="M0 0 C3.41311667 2.52570633 4.66637768 3.99913304 6 8 C54.51 8.495 54.51 8.495 104 9 C104 9.33 104 9.66 104 10 C72.32 10 40.64 10 8 10 C8 10.66 8 11.32 8 12 C25.16 12.33 42.32 12.66 60 13 C60 13.33 60 13.66 60 14 C42.18 14 24.36 14 6 14 C5.34 15.65 4.68 17.3 4 19 C1.79216435 21.4754521 0.16391744 22.80988644 -3.15234375 23.3515625 C-9.05172618 23.56751327 -12.3951308 22.33539997 -16.8125 18.375 C-18.68587786 14.62824429 -18.77902557 11.09342525 -18 7 C-13.81783429 -0.46594027 -7.93200941 -1.04157699 0 0 Z " fill="#5ABEC4" transform="translate(142,174)"/>
<path d="M0 0 C2.61771739 0.84607352 3.40902156 2.26243177 4.80078125 4.58203125 C5.04828125 5.63390625 5.04828125 5.63390625 5.30078125 6.70703125 C5.68651527 8.98326488 5.68651527 8.98326488 8.80078125 10.58203125 C8.47078125 10.91203125 8.14078125 11.24203125 7.80078125 11.58203125 C40.47078125 12.07703125 40.47078125 12.07703125 73.80078125 12.58203125 C73.80078125 12.91203125 73.80078125 13.24203125 73.80078125 13.58203125 C51.03078125 13.58203125 28.26078125 13.58203125 4.80078125 13.58203125 C4.47078125 14.90203125 4.14078125 16.22203125 3.80078125 17.58203125 C1.65149521 20.73431744 -0.02227315 22.29182549 -3.765625 23.21484375 C-6.87119664 23.47681034 -9.19223332 23.42170116 -12.19921875 22.58203125 C-16.22147955 19.0894193 -17.88603301 15.09576234 -18.94921875 9.95703125 C-16.60051999 -0.61211315 -9.61422398 -1.82721486 0 0 Z " fill="#5DB8BE" transform="translate(140.19921875,337.41796875)"/>
<path d="M0 0 C2.73266602 -0.38095093 2.73266602 -0.38095093 6.25390625 -0.38818359 C8.22605103 -0.40236832 8.22605103 -0.40236832 10.23803711 -0.4168396 C11.67952779 -0.41147009 13.12101574 -0.40531719 14.5625 -0.3984375 C16.03458806 -0.40045752 17.50667514 -0.40336835 18.97875977 -0.40713501 C22.06568926 -0.41156182 25.15235854 -0.40511614 28.23925781 -0.39111328 C32.20083833 -0.37402084 36.16180918 -0.38386017 40.12336731 -0.40183067 C43.16366184 -0.4126591 46.20381126 -0.40922659 49.24411011 -0.4014473 C50.7049873 -0.39944266 52.16587757 -0.40191379 53.6267395 -0.40888596 C55.66652177 -0.41648408 57.70635009 -0.40285452 59.74609375 -0.38818359 C61.48910767 -0.38460342 61.48910767 -0.38460342 63.26733398 -0.38095093 C64.62000366 -0.19238022 64.62000366 -0.19238022 66 0 C66.99 1.485 66.99 1.485 68 3 C44.9 3 21.8 3 -2 3 C-1.34 2.01 -0.68 1.02 0 0 Z " fill="#44B0B7" transform="translate(149,347)"/>
<path d="M0 0 C0.33 0.99 0.66 1.98 1 3 C1.66 3 2.32 3 3 3 C6 8.75 6 8.75 6 11 C7.37720215 10.99214478 7.37720215 10.99214478 8.78222656 10.98413086 C12.19645823 10.96706402 15.61064441 10.95453768 19.02490234 10.94506836 C20.50114661 10.94004712 21.97738592 10.93322884 23.45361328 10.92456055 C25.57846298 10.91239811 27.70324678 10.90674954 29.828125 10.90234375 C31.1059082 10.89710693 32.38369141 10.89187012 33.70019531 10.88647461 C38.53095546 11.05267049 38.53095546 11.05267049 41 12 C42.265625 14.109375 42.265625 14.109375 43.25 16.75 C43.58515625 17.61109375 43.9203125 18.4721875 44.265625 19.359375 C45.01079114 22.03880217 45.13926696 24.23455607 45 27 C45.66 27 46.32 27 47 27 C47.625 29.375 47.625 29.375 48 32 C47.34 32.66 46.68 33.32 46 34 C44.82685974 31.23174812 43.66129785 28.46071514 42.5 25.6875 C42.16613281 24.90181641 41.83226562 24.11613281 41.48828125 23.30664062 C41.17246094 22.54931641 40.85664063 21.79199219 40.53125 21.01171875 C40.23798828 20.31522217 39.94472656 19.61872559 39.64257812 18.90112305 C39 17 39 17 39 14 C27.45 14 15.9 14 4 14 C-0.5 3.875 -0.5 3.875 0 0 Z " fill="#57BBC1" transform="translate(315,278)"/>
<path d="M0 0 C3.4375 0.875 3.4375 0.875 6.4375 2.875 C6.73046875 5.0390625 6.73046875 5.0390625 6.625 7.5 C6.59792969 8.31726563 6.57085937 9.13453125 6.54296875 9.9765625 C6.50816406 10.60304688 6.47335938 11.22953125 6.4375 11.875 C2.60365283 13.98150943 -0.15843339 14.35544363 -4.5625 13.875 C-7.18791413 11.67303976 -7.5070448 10.25526421 -8 6.875 C-7.5625 3.875 -7.5625 3.875 -6 1.4375 C-3.5625 -0.125 -3.5625 -0.125 0 0 Z " fill="#EBF7F5" transform="translate(134.5625,341.125)"/>
<path d="M0 0 C2.9104445 1.96455004 3.79419261 3.08530047 4.5625 6.5 C4 9 4 9 1.875 11.3125 C-1.48674091 13.28569575 -3.16582397 13.57104749 -7 13 C-9.375 11.9375 -9.375 11.9375 -11 10 C-11.42751128 6.57990979 -11.60318593 4.16867275 -10 1.0625 C-6.76063399 -0.65841319 -3.52636345 -0.63857688 0 0 Z " fill="#F1FAF9" transform="translate(140,179)"/>
<path d="M0 0 C0.2165625 0.8971875 0.2165625 0.8971875 0.4375 1.8125 C0.8872439 3.56150404 1.42892341 5.28677023 2 7 C0.4324482 8.7021698 -1.15459784 10.38640554 -2.75 12.0625 C-3.63171875 13.00222656 -4.5134375 13.94195312 -5.421875 14.91015625 C-8 17 -8 17 -10.328125 16.80859375 C-10.87984375 16.54175781 -11.4315625 16.27492188 -12 16 C-12 15.34 -12 14.68 -12 14 C-45.66 13.505 -45.66 13.505 -80 13 C-80 12.67 -80 12.34 -80 12 C-79.15998947 12.01189865 -78.31997894 12.0237973 -77.45451355 12.03605652 C-69.49613524 12.13891198 -61.53955338 12.18814668 -53.58048534 12.17878246 C-49.48937372 12.17581682 -45.40046589 12.1927946 -41.30981445 12.25708008 C-37.35366519 12.31848931 -33.40068722 12.3252509 -29.44420815 12.29583168 C-27.94322144 12.29394382 -26.44207511 12.3109848 -24.9415493 12.34822655 C-17.51743656 12.52059389 -11.572929 12.25504374 -5.97065449 6.97453022 C-3.84264283 4.73993034 -1.89587788 2.4353401 0 0 Z " fill="#62C0C6" transform="translate(226,334)"/>
<path d="M0 0 C3.3125 1.6875 3.3125 1.6875 6 4 C6.875 6.75 6.875 6.75 7 9 C6.01 9.495 6.01 9.495 5 10 C4.938125 9.38125 4.87625 8.7625 4.8125 8.125 C4.17824983 5.78344855 4.17824983 5.78344855 1.75 4.75 C-2.28423811 3.64975324 -5.03479408 3.67826469 -9 5 C-9.04125 6.258125 -9.0825 7.51625 -9.125 8.8125 C-9.14820312 9.52019531 -9.17140625 10.22789062 -9.1953125 10.95703125 C-9.13254462 13.31359719 -9.13254462 13.31359719 -7 16 C-7 16.99 -7 17.98 -7 19 C-4.36 19 -1.72 19 1 19 C1 19.66 1 20.32 1 21 C-6.99651568 21.6271777 -6.99651568 21.6271777 -11 19.125 C-13.94509901 15.9958323 -14.58271437 13.5239524 -14.54296875 9.17578125 C-13.61122371 5.44209788 -11.12314097 3.57559437 -8.15625 1.29296875 C-5.13296528 -0.51990669 -3.43779489 -0.82208139 0 0 Z " fill="#43A5B0" transform="translate(137,338)"/>
<path d="M0 0 C1 2 1 2 0.21484375 4.6171875 C-2.41572498 11.32634445 -5.27840584 17.79617668 -8.5859375 24.19921875 C-10.23175689 27.45903228 -11.66445839 30.77997332 -13.04296875 34.16015625 C-14.09394722 36.18060874 -15.31876737 37.47978684 -17 39 C-16.43698141 34.90913089 -15.52681184 31.46697677 -13.875 27.6875 C-12.28064621 24.00431167 -10.71928363 20.31814135 -9.25390625 16.58203125 C-8.95307129 15.8238208 -8.65223633 15.06561035 -8.34228516 14.28442383 C-7.74980641 12.7885189 -7.16455327 11.28972709 -6.58740234 9.7878418 C-4.95807176 5.72018915 -3.43757996 2.88846982 0 0 Z " fill="#48B1B6" transform="translate(258,281)"/>
<path d="M0 0 C3 2 3 2 4 5 C52.51 5.495 52.51 5.495 102 6 C102 6.33 102 6.66 102 7 C89.14387708 7.09256824 76.28783308 7.16369811 63.43144512 7.20724869 C57.46207112 7.22814791 51.49292466 7.25650848 45.52368164 7.30175781 C39.76598173 7.34513178 34.00850105 7.3691195 28.25065041 7.37950897 C26.05092732 7.38691551 23.8512166 7.40137824 21.65158653 7.42292023 C18.57694688 7.45184148 15.50321998 7.45596068 12.4284668 7.45410156 C11.51352951 7.46848267 10.59859222 7.48286377 9.65592957 7.49768066 C3.51908576 7.45737081 3.51908576 7.45737081 0.91072083 5.15911865 C0 3 0 3 0 0 Z " fill="#78CED1" transform="translate(144,177)"/>
<path d="M0 0 C0 0.99 0 1.98 0 3 C-1.2375 3.0825 -2.475 3.165 -3.75 3.25 C-6.70588266 3.6319105 -7.92403793 3.94741088 -10.4375 5.6875 C-12.37462257 8.55444141 -12.92646879 10.54403317 -13 14 C-11.64555699 15.77190909 -11.64555699 15.77190909 -10 17 C-10 17.66 -10 18.32 -10 19 C-10.99 18.67 -11.98 18.34 -13 18 C-13.33 17.34 -13.66 16.68 -14 16 C-14.99 15.67 -15.98 15.34 -17 15 C-17.48240056 10.17599444 -17.42119099 6.85742452 -15.25 2.4375 C-11.33610951 -1.70460568 -5.20814978 -0.44854878 0 0 Z " fill="#54B8C0" transform="translate(141,175)"/>
<path d="M0 0 C4.13079525 3.22403531 7.47732054 6.61794135 10.859375 10.609375 C14.07265246 14.19792574 17.5288604 17.53762172 21.00048828 20.87524414 C23.41729844 23.23665131 24.91496833 24.74490498 26 28 C25.34 28 24.68 28 24 28 C24 27.34 24 26.68 24 26 C23.17435547 25.90912109 23.17435547 25.90912109 22.33203125 25.81640625 C18.95208895 24.63314337 17.17219215 22.49248047 14.6875 19.9375 C14.20547119 19.44451416 13.72344238 18.95152832 13.22680664 18.44360352 C9.80925403 14.92098329 6.51954054 11.29804156 3.33984375 7.55859375 C2.27935864 6.32496821 1.15031749 5.15031749 0 4 C0 2.68 0 1.36 0 0 Z " fill="#66CBD4" transform="translate(246,184)"/>
<path d="M0 0 C9.57 0 19.14 0 29 0 C33 10 33 10 33 15 C33.66 15 34.32 15 35 15 C35.625 17.375 35.625 17.375 36 20 C35.34 20.66 34.68 21.32 34 22 C31.36 15.4 28.72 8.8 26 2 C13.13 1.505 13.13 1.505 0 1 C0 0.67 0 0.34 0 0 Z " fill="#4BB4BB" transform="translate(327,290)"/>
<path d="M0 0 C0.87591797 0.34224609 0.87591797 0.34224609 1.76953125 0.69140625 C1.20480115 4.5996971 -0.65178846 6.59060848 -3.29296875 9.44140625 C-4.39318359 10.64023437 -4.39318359 10.64023437 -5.515625 11.86328125 C-6.08152344 12.4665625 -6.64742187 13.06984375 -7.23046875 13.69140625 C-8.22046875 13.36140625 -9.21046875 13.03140625 -10.23046875 12.69140625 C-10.09531325 7.15003077 -7.80487396 4.68174216 -4.1171875 0.9140625 C-2.23046875 -0.30859375 -2.23046875 -0.30859375 0 0 Z " fill="#4CB7C2" transform="translate(236.23046875,326.30859375)"/>
<path d="M0 0 C1.11543366 4.46173463 0.83534676 5.89231915 -1 10 C-3.08203125 11.68359375 -3.08203125 11.68359375 -5 13 C-6.15454162 11.75803878 -7.29832562 10.50607155 -8.4375 9.25 C-9.07558594 8.55390625 -9.71367187 7.8578125 -10.37109375 7.140625 C-11.99081325 5.01207275 -12.58267256 3.60976595 -13 1 C-12.52949219 1.40992188 -12.05898438 1.81984375 -11.57421875 2.2421875 C-10.95160156 2.78101563 -10.32898438 3.31984375 -9.6875 3.875 C-9.07261719 4.40867188 -8.45773437 4.94234375 -7.82421875 5.4921875 C-5.86501788 7.1640447 -5.86501788 7.1640447 -3 9 C-2.01 6.03 -1.02 3.06 0 0 Z " fill="#5FC5CC" transform="translate(285,211)"/>
<path d="M0 0 C3.1857029 1.39330742 5.19822217 3.02896738 7.5625 5.5625 C9.8343494 7.99626295 10.76779382 8.92259794 14 10 C14 10.66 14 11.32 14 12 C13.34 12 12.68 12 12 12 C11.67 12.66 11.34 13.32 11 14 C9.15730989 12.23807715 7.32609243 10.46648194 5.5 8.6875 C4.97535156 8.18798828 4.45070313 7.68847656 3.91015625 7.17382812 C2.5489154 5.83910496 1.26860484 4.4230616 0 3 C0 2.01 0 1.02 0 0 Z " fill="#59BFC7" transform="translate(256,200)"/>
<path d="M0 0 C0.33 0 0.66 0 1 0 C3.14285714 7.42857143 3.14285714 7.42857143 4 11 C6.64 11 9.28 11 12 11 C12 11.66 12 12.32 12 13 C3.96498906 13.78774617 3.96498906 13.78774617 -0.0625 10.5 C-0.701875 9.675 -1.34125 8.85 -2 8 C-1.34 8 -0.68 8 0 8 C0 5.36 0 2.72 0 0 Z " fill="#38A7B4" transform="translate(126,346)"/>
<path d="M0 0 C1.32 0 2.64 0 4 0 C4.5775 1.093125 5.155 2.18625 5.75 3.3125 C7.44144447 6.29669132 9.01791458 8.18944814 12 10 C11.67 10.99 11.34 11.98 11 13 C2.30169972 5.66997167 2.30169972 5.66997167 0 3 C0 2.01 0 1.02 0 0 Z " fill="#51BBC3" transform="translate(268,212)"/>
<path d="M0 0 C2.52259061 1.97420135 2.9929808 2.96745642 3.6875 6.1875 C3.790625 7.115625 3.89375 8.04375 4 9 C4.66 9 5.32 9 6 9 C6.50559908 10.43554025 7.0042749 11.8735202 7.5 13.3125 C7.7784375 14.11300781 8.056875 14.91351563 8.34375 15.73828125 C9 18 9 18 9 21 C8.34 21 7.68 21 7 21 C5.82504857 18.06574629 4.66149148 15.12710487 3.5 12.1875 C3.16613281 11.35412109 2.83226562 10.52074219 2.48828125 9.66210938 C2.17246094 8.85966797 1.85664063 8.05722656 1.53125 7.23046875 C1.23798828 6.49207764 0.94472656 5.75368652 0.64257812 4.99291992 C0 3 0 3 0 0 Z " fill="#50BABE" transform="translate(324,216)"/>
<path d="M0 0 C0.33 0.99 0.66 1.98 1 3 C0.01 4.485 0.01 4.485 -1 6 C-1.45139459 8.0492094 -1.45139459 8.0492094 -1.625 10.1875 C-1.74875 11.445625 -1.8725 12.70375 -2 14 C-2.99 13.67 -3.98 13.34 -5 13 C-5.61538462 5.73846154 -5.61538462 5.73846154 -2.5 2 C-1.675 1.34 -0.85 0.68 0 0 Z " fill="#34A3AC" transform="translate(128,340)"/>
<path d="M0 0 C0.99 0 1.98 0 3 0 C6.00559652 5.00932754 6.29341888 8.32723489 6 14 C5.71382813 13.42507813 5.42765625 12.85015625 5.1328125 12.2578125 C4.40683342 10.8108611 3.6731345 9.36774192 2.9296875 7.9296875 C2.58164062 7.25164062 2.23359375 6.57359375 1.875 5.875 C1.52179688 5.19179688 1.16859375 4.50859375 0.8046875 3.8046875 C0 2 0 2 0 0 Z " fill="#56B8BC" transform="translate(307,264)"/>
<path d="M0 0 C0.66 0.33 1.32 0.66 2 1 C1.01 1.33 0.02 1.66 -1 2 C-1.33 2.66 -1.66 3.32 -2 4 C-2.33 4.66 -2.66 5.32 -3 6 C-3.99 6.33 -4.98 6.66 -6 7 C-6 8.98 -6 10.96 -6 13 C-6.33 13 -6.66 13 -7 13 C-7.32150943 8.90075477 -7.41384837 6.65644914 -5.1875 3.125 C-3 1 -3 1 0 0 Z " fill="#58B4B9" transform="translate(129,338)"/>
<path d="M0 0 C0 0.99 0 1.98 0 3 C-2.40545638 4.20272819 -3.94996953 4.10071472 -6.625 4.0625 C-7.85089844 4.04896484 -7.85089844 4.04896484 -9.1015625 4.03515625 C-10.04128906 4.01775391 -10.04128906 4.01775391 -11 4 C-11 3.34 -11 2.68 -11 2 C-9.5422647 1.664061 -8.08378894 1.33133376 -6.625 1 C-5.40683594 0.7215625 -5.40683594 0.7215625 -4.1640625 0.4375 C-2 0 -2 0 0 0 Z " fill="#44B9C1" transform="translate(144,192)"/>
<path d="M0 0 C0.99 0.33 1.98 0.66 3 1 C2.9071875 2.3921875 2.9071875 2.3921875 2.8125 3.8125 C2.67622737 6.97943248 2.67622737 6.97943248 4.5 8.75 C4.995 9.1625 5.49 9.575 6 10 C6 10.66 6 11.32 6 12 C1.75 10.58333333 1.75 10.58333333 0 8 C-0.25786843 5.28163692 -0.13483297 2.74160376 0 0 Z " fill="#3AAFB7" transform="translate(125,182)"/>
<path d="M0 0 C2.475 0.99 2.475 0.99 5 2 C4.01 2.99 3.02 3.98 2 5 C2 4.34 2 3.68 2 3 C1.01 3.495 1.01 3.495 0 4 C-2.6723621 4.13415472 -5.32250488 4.04318541 -8 4 C-8 3.67 -8 3.34 -8 3 C-6.865625 2.690625 -5.73125 2.38125 -4.5625 2.0625 C-1.21224901 1.37075469 -1.21224901 1.37075469 0 0 Z " fill="#6FC6CC" transform="translate(142,189)"/>
<path d="M0 0 C3 2 3 2 4 5 C7.3 5.33 10.6 5.66 14 6 C14 6.33 14 6.66 14 7 C12.23050905 7.10815225 10.45912513 7.18566083 8.6875 7.25 C7.70136719 7.29640625 6.71523437 7.3428125 5.69921875 7.390625 C3 7 3 7 1.14453125 5.171875 C0 3 0 3 0 0 Z " fill="#6AC6CA" transform="translate(144,177)"/>
<path d="M0 0 C-1.44077046 3.36179774 -3.24750021 5.59156268 -6 8 C-6.66 8 -7.32 8 -8 8 C-6.48291727 4.46014029 -4.24676932 0 0 0 Z " fill="#DCDDDE" transform="translate(87,238)"/>
<path d="M0 0 C0.33 0 0.66 0 1 0 C1 2.31 1 4.62 1 7 C-0.98 7.99 -0.98 7.99 -3 9 C-2.01 6.03 -1.02 3.06 0 0 Z " fill="#68BFC3" transform="translate(259,273)"/>
<path d="M0 0 C0.66 0 1.32 0 2 0 C1.40138258 2.35171131 0.73075648 4.6859378 0 7 C-0.99 7.495 -0.99 7.495 -2 8 C-1.125 1.125 -1.125 1.125 0 0 Z " fill="#4CB7BC" transform="translate(266,259)"/>
<path d="M0 0 C1.37780724 2.75561448 0.92023755 4.09771234 0 7 C-2.0625 8.8125 -2.0625 8.8125 -4 10 C-3.52449439 8.51965236 -3.04448784 7.04074979 -2.5625 5.5625 C-2.29566406 4.73878906 -2.02882813 3.91507813 -1.75390625 3.06640625 C-1 1 -1 1 0 0 Z " fill="#89D0D3" transform="translate(271,245)"/>
<path d="M0 0 C0.33 0 0.66 0 1 0 C1.309375 1.11375 1.61875 2.2275 1.9375 3.375 C2.82326483 6.7945155 2.82326483 6.7945155 4 9 C2.68 8.67 1.36 8.34 0 8 C0 5.36 0 2.72 0 0 Z M-2 8 C-1.34 8 -0.68 8 0 8 C-0.33 8.66 -0.66 9.32 -1 10 C-1.33 9.34 -1.66 8.68 -2 8 Z " fill="#54B4BD" transform="translate(126,346)"/>
<path d="M0 0 C0.99 0.33 1.98 0.66 3 1 C1.35 2.65 -0.3 4.3 -2 6 C-2.99 5.67 -3.98 5.34 -5 5 C-3.35 3.35 -1.7 1.7 0 0 Z " fill="#68C8CC" transform="translate(220,340)"/>
<path d="M0 0 C1 3 1 3 1 5 C1.66 5.33 2.32 5.66 3 6 C2.01 6.66 1.02 7.32 0 8 C-0.99 6.68 -1.98 5.36 -3 4 C-2.01 2.68 -1.02 1.36 0 0 Z " fill="#60C0C6" transform="translate(238,321)"/>
<path d="M0 0 C2.97 1.98 2.97 1.98 6 4 C5.67 4.99 5.34 5.98 5 7 C2.5 5.1875 2.5 5.1875 0 3 C0 2.01 0 1.02 0 0 Z " fill="#4AB5BD" transform="translate(274,218)"/>
<path d="M0 0 C0.95904856 3.83619425 0.91892116 5.32431536 0 9 C-0.99 9 -1.98 9 -3 9 C-2.01 6.03 -1.02 3.06 0 0 Z " fill="#75CBCD" transform="translate(285,211)"/>
</svg>
